<svg width="55" height="70" viewBox="0 0 55 70" fill="none" xmlns="http://www.w3.org/2000/svg">
<path fill-rule="evenodd" clip-rule="evenodd" d="M29.0385 67.5565C34.9904 57.2474 45.7797 49.9024 51.1749 39.2913C53.0439 35.6154 54.0976 31.4551 54.0976 27.0488C54.0976 12.1102 41.9874 0 27.0488 0C12.1102 0 0 12.1102 0 27.0488C0 31.4551 1.05363 35.6154 2.9227 39.2914C8.31774 49.9021 19.1067 57.2471 25.0584 67.5558L26.1549 69.455C26.5521 70.143 27.5452 70.143 27.9424 69.455L29.0385 67.5565Z" fill="#2775CA"/>
<circle cx="27.0487" cy="27.0488" r="18.8383" fill="white"/>
<path d="M27.0489 41.0396C34.8025 41.0396 41.0396 34.8025 41.0396 27.0488C41.0396 19.2952 34.8025 13.0581 27.0489 13.0581C19.2952 13.0581 13.0581 19.2952 13.0581 27.0488C13.0581 34.8025 19.2952 41.0396 27.0489 41.0396Z" fill="#2775CA"/>
<path d="M30.8963 29.2635C30.8963 27.2236 29.6721 26.5241 27.2237 26.2317C25.4749 25.998 25.1251 25.5321 25.1251 24.7165C25.1251 23.9008 25.7085 23.3762 26.874 23.3762C27.9233 23.3762 28.5067 23.7259 28.7977 24.6004C28.8565 24.7752 29.0313 24.8914 29.2062 24.8914H30.1394C30.3731 24.8914 30.5479 24.7165 30.5479 24.4828V24.4241C30.3143 23.1411 29.265 22.1506 27.9247 22.0345V20.6354C27.9247 20.4017 27.7498 20.2269 27.4588 20.1695H26.5844C26.3507 20.1695 26.1758 20.3444 26.1185 20.6354V21.9757C24.3696 22.2093 23.2616 23.3748 23.2616 24.8326C23.2616 26.7563 24.427 27.5146 26.8754 27.8056C28.5081 28.0967 29.0327 28.4464 29.0327 29.3796C29.0327 30.3128 28.2171 30.9536 27.109 30.9536C25.5938 30.9536 25.0692 30.3128 24.8943 29.4384C24.8355 29.2047 24.6606 29.0886 24.4857 29.0886H23.4952C23.2616 29.0886 23.0867 29.2635 23.0867 29.4971V29.5559C23.3203 31.0137 24.2521 32.063 26.1758 32.354V33.7531C26.1758 33.9868 26.3507 34.1616 26.6417 34.219H27.5161C27.7498 34.219 27.9247 34.0441 27.982 33.7531V32.354C29.7295 32.0616 30.8963 30.8374 30.8963 29.2635Z" fill="white"/>
<path d="M24.0752 35.3846C19.5282 33.7518 17.196 28.6802 18.8875 24.192C19.7619 21.7436 21.6856 19.8786 24.0752 19.0042C24.3089 18.8881 24.425 18.7132 24.425 18.4208V17.6051C24.425 17.3715 24.3089 17.1966 24.0752 17.1392C24.0165 17.1392 23.9004 17.1392 23.8416 17.198C18.3041 18.9468 15.2723 24.8341 17.0211 30.3731C18.0704 33.6371 20.5776 36.1443 23.8416 37.1936C24.0752 37.3097 24.3075 37.1936 24.3662 36.9599C24.425 36.9011 24.425 36.8438 24.425 36.7263V35.9106C24.425 35.7343 24.2501 35.5021 24.0752 35.3846ZM30.2536 17.1966C30.0199 17.0805 29.7877 17.1966 29.7289 17.4302C29.6701 17.489 29.6701 17.5464 29.6701 17.6639V18.4795C29.6701 18.7132 29.845 18.9454 30.0199 19.0629C34.5669 20.6957 36.8992 25.7673 35.2077 30.2555C34.3333 32.7039 32.4095 34.5689 30.0199 35.4433C29.7863 35.5594 29.6701 35.7343 29.6701 36.0267V36.8424C29.6701 37.076 29.7863 37.2509 30.0199 37.3083C30.0787 37.3083 30.1948 37.3083 30.2536 37.2495C35.7911 35.5007 38.8229 29.6134 37.074 24.0744C36.0247 20.753 33.4602 18.2459 30.2536 17.1966Z" fill="white"/>
</svg>
