<svg width="130" height="33" viewBox="0 0 130 33" fill="none" xmlns="http://www.w3.org/2000/svg">
<path d="M13.512 19.5394C17.2036 19.5394 20.1731 16.5698 20.1731 12.8782C20.1731 9.18661 17.2036 6.21707 13.512 6.21707C9.82037 6.21707 6.85083 9.18661 6.85083 12.8782C6.85083 16.5698 9.82037 19.5394 13.512 19.5394Z" fill="#2775CA"/>
<path d="M15.3438 13.9326C15.3438 12.9615 14.7609 12.6284 13.5952 12.4892C12.7626 12.3779 12.5961 12.1561 12.5961 11.7678C12.5961 11.3794 12.8738 11.1296 13.4287 11.1296C13.9283 11.1296 14.2061 11.2962 14.3446 11.7125C14.3726 11.7958 14.4559 11.851 14.5391 11.851H14.9834C15.0947 11.851 15.1779 11.7678 15.1779 11.6565V11.6286C15.0667 11.0177 14.5671 10.5461 13.929 10.4908V9.82472C13.929 9.71348 13.8457 9.63022 13.7072 9.60291H13.2908C13.1796 9.60291 13.0963 9.68617 13.069 9.82472V10.4629C12.2364 10.5741 11.7088 11.129 11.7088 11.8231C11.7088 12.739 12.2637 13.1 13.4294 13.2386C14.2067 13.3771 14.4565 13.5436 14.4565 13.9879C14.4565 14.4322 14.0682 14.7373 13.5406 14.7373C12.8192 14.7373 12.5694 14.4322 12.4862 14.0159C12.4582 13.9047 12.3749 13.8494 12.2917 13.8494H11.8201C11.7088 13.8494 11.6255 13.9326 11.6255 14.0439V14.0719C11.7368 14.766 12.1804 15.2655 13.0963 15.4041V16.0702C13.0963 16.1815 13.1796 16.2647 13.3181 16.292H13.7345C13.8457 16.292 13.929 16.2088 13.9563 16.0702V15.4041C14.7883 15.2649 15.3438 14.682 15.3438 13.9326Z" fill="white"/>
<path d="M12.0962 16.8469C9.93136 16.0696 8.82095 13.6549 9.62628 11.518C10.0426 10.3523 10.9585 9.4644 12.0962 9.04808C12.2075 8.99279 12.2628 8.90953 12.2628 8.77031V8.38196C12.2628 8.27072 12.2075 8.18746 12.0962 8.16015C12.0683 8.16015 12.013 8.16015 11.985 8.18813C9.34851 9.02077 7.90504 11.8238 8.73769 14.4609C9.23727 16.015 10.4309 17.2086 11.985 17.7082C12.0962 17.7635 12.2068 17.7082 12.2348 17.597C12.2628 17.569 12.2628 17.5417 12.2628 17.4858V17.0974C12.2628 17.0135 12.1795 16.9029 12.0962 16.8469ZM15.0378 8.18746C14.9266 8.13217 14.816 8.18746 14.788 8.2987C14.76 8.32668 14.76 8.35399 14.76 8.40994V8.79829C14.76 8.90953 14.8433 9.0201 14.9266 9.07606C17.0914 9.85341 18.2018 12.2681 17.3965 14.405C16.9802 15.5707 16.0643 16.4586 14.9266 16.8749C14.8153 16.9302 14.76 17.0135 14.76 17.1527V17.541C14.76 17.6523 14.8153 17.7355 14.9266 17.7629C14.9545 17.7629 15.0098 17.7629 15.0378 17.7349C17.6743 16.9022 19.1177 14.0992 18.2851 11.4621C17.7855 9.88072 16.5645 8.68705 15.0378 8.18746Z" fill="white"/>
<path d="M13.5117 0C20.6241 0 26.3905 5.76562 26.3906 12.8779C26.3906 14.938 25.9071 16.8856 25.0469 18.6123C22.4887 23.7473 17.2737 27.2884 14.4053 32.2568C14.0081 32.9448 13.0154 32.9448 12.6182 32.2568C9.74904 27.2883 4.53368 23.7465 1.97656 18.6104C1.11706 16.884 0.633789 14.9373 0.633789 12.8779C0.633943 5.76571 6.3995 0.00015359 13.5117 0ZM13.5117 3.90918C8.55845 3.90933 4.54312 7.92466 4.54297 12.8779C4.54297 17.8313 8.55835 21.8475 13.5117 21.8477C18.4652 21.8477 22.4814 17.8314 22.4814 12.8779C22.4813 7.92457 18.4651 3.90918 13.5117 3.90918Z" fill="#2775CA"/>
<path d="M36.7986 23.0784C36.0413 23.0784 35.3373 22.9398 34.6866 22.6624C34.0466 22.3851 33.492 22.0011 33.0226 21.5104C32.564 21.0091 32.228 20.4278 32.0146 19.7664L33.8226 18.9824C34.1106 19.6651 34.5266 20.2038 35.0706 20.5984C35.6146 20.9824 36.228 21.1744 36.9106 21.1744C37.2946 21.1744 37.6253 21.1158 37.9026 20.9984C38.1906 20.8704 38.4093 20.6998 38.5586 20.4864C38.7186 20.2731 38.7986 20.0171 38.7986 19.7184C38.7986 19.3664 38.692 19.0784 38.4786 18.8544C38.276 18.6198 37.9666 18.4384 37.5506 18.3104L35.2626 17.5744C34.3346 17.2864 33.636 16.8544 33.1666 16.2784C32.6973 15.7024 32.4626 15.0251 32.4626 14.2464C32.4626 13.5638 32.628 12.9611 32.9586 12.4384C33.3 11.9158 33.7693 11.5104 34.3666 11.2224C34.9746 10.9238 35.668 10.7744 36.4466 10.7744C37.1613 10.7744 37.8173 10.9024 38.4146 11.1584C39.012 11.4038 39.524 11.7504 39.9506 12.1984C40.388 12.6358 40.7133 13.1531 40.9266 13.7504L39.1346 14.5504C38.9 13.9531 38.548 13.4944 38.0786 13.1744C37.6093 12.8438 37.0653 12.6784 36.4466 12.6784C36.084 12.6784 35.764 12.7424 35.4866 12.8704C35.2093 12.9878 34.9906 13.1584 34.8306 13.3824C34.6813 13.5958 34.6066 13.8518 34.6066 14.1504C34.6066 14.4811 34.7133 14.7744 34.9266 15.0304C35.14 15.2758 35.4653 15.4678 35.9026 15.6064L38.0946 16.2944C39.044 16.6038 39.7533 17.0304 40.2226 17.5744C40.7026 18.1184 40.9426 18.7904 40.9426 19.5904C40.9426 20.2731 40.7666 20.8758 40.4146 21.3984C40.0626 21.9211 39.5773 22.3318 38.9586 22.6304C38.34 22.9291 37.62 23.0784 36.7986 23.0784ZM46.694 22.9824C45.7127 22.9824 44.95 22.7158 44.406 22.1824C43.8727 21.6384 43.606 20.8758 43.606 19.8944V16.0544H42.102V14.1824H42.262C42.6887 14.1824 43.0193 14.0704 43.254 13.8464C43.4887 13.6224 43.606 13.2971 43.606 12.8704V12.1984H45.702V14.1824H47.702V16.0544H45.702V19.7824C45.702 20.0704 45.75 20.3158 45.846 20.5184C45.9527 20.7211 46.1127 20.8758 46.326 20.9824C46.55 21.0891 46.8327 21.1424 47.174 21.1424C47.2487 21.1424 47.334 21.1371 47.43 21.1264C47.5367 21.1158 47.638 21.1051 47.734 21.0944V22.8864C47.5847 22.9078 47.414 22.9291 47.222 22.9504C47.03 22.9718 46.854 22.9824 46.694 22.9824ZM51.9441 23.0784C51.3361 23.0784 50.8081 22.9771 50.3601 22.7744C49.9121 22.5718 49.5655 22.2838 49.3201 21.9104C49.0748 21.5264 48.9521 21.0838 48.9521 20.5824C48.9521 20.1024 49.0588 19.6758 49.2721 19.3024C49.4855 18.9184 49.8161 18.5984 50.2641 18.3424C50.7121 18.0864 51.2775 17.9051 51.9601 17.7984L54.8081 17.3344V18.9344L52.3601 19.3504C51.9441 19.4251 51.6348 19.5584 51.4321 19.7504C51.2295 19.9424 51.1281 20.1931 51.1281 20.5024C51.1281 20.8011 51.2401 21.0411 51.4641 21.2224C51.6988 21.3931 51.9868 21.4784 52.3281 21.4784C52.7655 21.4784 53.1495 21.3878 53.4801 21.2064C53.8215 21.0144 54.0828 20.7531 54.2641 20.4224C54.4561 20.0918 54.5521 19.7291 54.5521 19.3344V17.0944C54.5521 16.7211 54.4028 16.4118 54.1041 16.1664C53.8161 15.9104 53.4321 15.7824 52.9521 15.7824C52.5041 15.7824 52.1041 15.9051 51.7521 16.1504C51.4108 16.3851 51.1601 16.6998 51.0001 17.0944L49.2881 16.2624C49.4588 15.8038 49.7255 15.4091 50.0881 15.0784C50.4615 14.7371 50.8988 14.4704 51.4001 14.2784C51.9015 14.0864 52.4455 13.9904 53.0321 13.9904C53.7468 13.9904 54.3761 14.1238 54.9201 14.3904C55.4641 14.6464 55.8855 15.0091 56.1841 15.4784C56.4935 15.9371 56.6481 16.4758 56.6481 17.0944V22.8864H54.6641V21.3984L55.1121 21.3664C54.8881 21.7398 54.6215 22.0544 54.3121 22.3104C54.0028 22.5558 53.6508 22.7478 53.2561 22.8864C52.8615 23.0144 52.4241 23.0784 51.9441 23.0784ZM63.3374 23.0784C62.708 23.0784 62.1267 22.9558 61.5934 22.7104C61.0707 22.4544 60.6547 22.0918 60.3454 21.6224L60.5534 21.2064V22.8864H58.5854V10.7744H60.6814V15.9104L60.3614 15.4784C60.66 15.0091 61.0654 14.6464 61.5774 14.3904C62.0894 14.1238 62.6814 13.9904 63.3534 13.9904C64.1747 13.9904 64.916 14.1931 65.5774 14.5984C66.2387 15.0038 66.7614 15.5478 67.1454 16.2304C67.54 16.9131 67.7374 17.6811 67.7374 18.5344C67.7374 19.3771 67.5454 20.1451 67.1614 20.8384C66.7774 21.5318 66.2547 22.0811 65.5934 22.4864C64.932 22.8811 64.18 23.0784 63.3374 23.0784ZM63.0974 21.1584C63.5774 21.1584 64.004 21.0464 64.3774 20.8224C64.7507 20.5984 65.0387 20.2891 65.2414 19.8944C65.4547 19.4998 65.5614 19.0464 65.5614 18.5344C65.5614 18.0224 65.4547 17.5744 65.2414 17.1904C65.0387 16.7958 64.7507 16.4864 64.3774 16.2624C64.004 16.0278 63.5774 15.9104 63.0974 15.9104C62.6387 15.9104 62.2227 16.0224 61.8494 16.2464C61.4867 16.4704 61.1987 16.7851 60.9854 17.1904C60.7827 17.5851 60.6814 18.0331 60.6814 18.5344C60.6814 19.0464 60.7827 19.4998 60.9854 19.8944C61.1987 20.2891 61.4867 20.5984 61.8494 20.8224C62.2227 21.0464 62.6387 21.1584 63.0974 21.1584ZM69.3354 22.8864V10.7744H71.4314V22.8864H69.3354ZM77.4946 23.0784C76.5986 23.0784 75.8146 22.8758 75.1426 22.4704C74.4706 22.0651 73.948 21.5158 73.5746 20.8224C73.2013 20.1291 73.0146 19.3611 73.0146 18.5184C73.0146 17.6438 73.2013 16.8704 73.5746 16.1984C73.9586 15.5158 74.476 14.9771 75.1266 14.5824C75.788 14.1878 76.524 13.9904 77.3346 13.9904C78.0173 13.9904 78.6146 14.1024 79.1266 14.3264C79.6493 14.5504 80.092 14.8598 80.4546 15.2544C80.8173 15.6491 81.0946 16.1024 81.2866 16.6144C81.4786 17.1158 81.5746 17.6598 81.5746 18.2464C81.5746 18.3958 81.564 18.5504 81.5426 18.7104C81.532 18.8704 81.5053 19.0091 81.4626 19.1264H74.7426V17.5264H80.2786L79.2866 18.2784C79.3826 17.7878 79.356 17.3504 79.2066 16.9664C79.068 16.5824 78.8333 16.2784 78.5026 16.0544C78.1826 15.8304 77.7933 15.7184 77.3346 15.7184C76.8973 15.7184 76.508 15.8304 76.1666 16.0544C75.8253 16.2678 75.564 16.5878 75.3826 17.0144C75.212 17.4304 75.148 17.9371 75.1906 18.5344C75.148 19.0678 75.2173 19.5424 75.3986 19.9584C75.5906 20.3638 75.868 20.6784 76.2306 20.9024C76.604 21.1264 77.0306 21.2384 77.5106 21.2384C77.9906 21.2384 78.396 21.1371 78.7266 20.9344C79.068 20.7318 79.3346 20.4598 79.5266 20.1184L81.2226 20.9504C81.052 21.3664 80.7853 21.7344 80.4226 22.0544C80.06 22.3744 79.628 22.6251 79.1266 22.8064C78.636 22.9878 78.092 23.0784 77.4946 23.0784ZM87.5955 23.0784C86.8382 23.0784 86.1342 22.9398 85.4835 22.6624C84.8435 22.3851 84.2888 22.0011 83.8195 21.5104C83.3608 21.0091 83.0248 20.4278 82.8115 19.7664L84.6195 18.9824C84.9075 19.6651 85.3235 20.2038 85.8675 20.5984C86.4115 20.9824 87.0248 21.1744 87.7075 21.1744C88.0915 21.1744 88.4222 21.1158 88.6995 20.9984C88.9875 20.8704 89.2062 20.6998 89.3555 20.4864C89.5155 20.2731 89.5955 20.0171 89.5955 19.7184C89.5955 19.3664 89.4888 19.0784 89.2755 18.8544C89.0728 18.6198 88.7635 18.4384 88.3475 18.3104L86.0595 17.5744C85.1315 17.2864 84.4328 16.8544 83.9635 16.2784C83.4942 15.7024 83.2595 15.0251 83.2595 14.2464C83.2595 13.5638 83.4248 12.9611 83.7555 12.4384C84.0968 11.9158 84.5662 11.5104 85.1635 11.2224C85.7715 10.9238 86.4648 10.7744 87.2435 10.7744C87.9582 10.7744 88.6142 10.9024 89.2115 11.1584C89.8088 11.4038 90.3208 11.7504 90.7475 12.1984C91.1848 12.6358 91.5102 13.1531 91.7235 13.7504L89.9315 14.5504C89.6968 13.9531 89.3448 13.4944 88.8755 13.1744C88.4062 12.8438 87.8622 12.6784 87.2435 12.6784C86.8808 12.6784 86.5608 12.7424 86.2835 12.8704C86.0062 12.9878 85.7875 13.1584 85.6275 13.3824C85.4782 13.5958 85.4035 13.8518 85.4035 14.1504C85.4035 14.4811 85.5102 14.7744 85.7235 15.0304C85.9368 15.2758 86.2622 15.4678 86.6995 15.6064L88.8915 16.2944C89.8408 16.6038 90.5502 17.0304 91.0195 17.5744C91.4995 18.1184 91.7395 18.7904 91.7395 19.5904C91.7395 20.2731 91.5635 20.8758 91.2115 21.3984C90.8595 21.9211 90.3742 22.3318 89.7555 22.6304C89.1368 22.9291 88.4168 23.0784 87.5955 23.0784ZM93.5229 26.0864V14.1824H95.4909V15.9104L95.2989 15.4784C95.5975 15.0091 96.0029 14.6464 96.5149 14.3904C97.0269 14.1238 97.6189 13.9904 98.2909 13.9904C99.1122 13.9904 99.8535 14.1931 100.515 14.5984C101.176 15.0038 101.699 15.5478 102.083 16.2304C102.478 16.9131 102.675 17.6811 102.675 18.5344C102.675 19.3771 102.483 20.1451 102.099 20.8384C101.715 21.5318 101.192 22.0811 100.531 22.4864C99.8695 22.8811 99.1175 23.0784 98.2749 23.0784C97.6455 23.0784 97.0642 22.9558 96.5309 22.7104C96.0082 22.4544 95.5922 22.0918 95.2829 21.6224L95.6189 21.2064V26.0864H93.5229ZM98.0349 21.1584C98.5149 21.1584 98.9415 21.0464 99.3149 20.8224C99.6882 20.5984 99.9762 20.2891 100.179 19.8944C100.392 19.4998 100.499 19.0464 100.499 18.5344C100.499 18.0224 100.392 17.5744 100.179 17.1904C99.9762 16.7958 99.6882 16.4864 99.3149 16.2624C98.9415 16.0278 98.5149 15.9104 98.0349 15.9104C97.5762 15.9104 97.1602 16.0224 96.7869 16.2464C96.4242 16.4704 96.1362 16.7851 95.9229 17.1904C95.7202 17.5851 95.6189 18.0331 95.6189 18.5344C95.6189 19.0464 95.7202 19.4998 95.9229 19.8944C96.1362 20.2891 96.4242 20.5984 96.7869 20.8224C97.1602 21.0464 97.5762 21.1584 98.0349 21.1584ZM108.529 23.0784C107.676 23.0784 106.897 22.8811 106.193 22.4864C105.5 22.0918 104.945 21.5531 104.529 20.8704C104.124 20.1878 103.921 19.4091 103.921 18.5344C103.921 17.6598 104.124 16.8811 104.529 16.1984C104.945 15.5158 105.5 14.9771 106.193 14.5824C106.886 14.1878 107.665 13.9904 108.529 13.9904C109.382 13.9904 110.156 14.1878 110.849 14.5824C111.542 14.9771 112.092 15.5158 112.497 16.1984C112.913 16.8704 113.121 17.6491 113.121 18.5344C113.121 19.4091 112.913 20.1878 112.497 20.8704C112.081 21.5531 111.526 22.0918 110.833 22.4864C110.14 22.8811 109.372 23.0784 108.529 23.0784ZM108.529 21.1584C108.998 21.1584 109.409 21.0464 109.761 20.8224C110.124 20.5984 110.406 20.2891 110.609 19.8944C110.822 19.4891 110.929 19.0358 110.929 18.5344C110.929 18.0224 110.822 17.5744 110.609 17.1904C110.406 16.7958 110.124 16.4864 109.761 16.2624C109.409 16.0278 108.998 15.9104 108.529 15.9104C108.049 15.9104 107.628 16.0278 107.265 16.2624C106.902 16.4864 106.614 16.7958 106.401 17.1904C106.198 17.5744 106.097 18.0224 106.097 18.5344C106.097 19.0358 106.198 19.4891 106.401 19.8944C106.614 20.2891 106.902 20.5984 107.265 20.8224C107.628 21.0464 108.049 21.1584 108.529 21.1584ZM118.522 22.9824C117.541 22.9824 116.778 22.7158 116.234 22.1824C115.701 21.6384 115.434 20.8758 115.434 19.8944V16.0544H113.93V14.1824H114.09C114.517 14.1824 114.847 14.0704 115.082 13.8464C115.317 13.6224 115.434 13.2971 115.434 12.8704V12.1984H117.53V14.1824H119.53V16.0544H117.53V19.7824C117.53 20.0704 117.578 20.3158 117.674 20.5184C117.781 20.7211 117.941 20.8758 118.154 20.9824C118.378 21.0891 118.661 21.1424 119.002 21.1424C119.077 21.1424 119.162 21.1371 119.258 21.1264C119.365 21.1158 119.466 21.1051 119.562 21.0944V22.8864C119.413 22.9078 119.242 22.9291 119.05 22.9504C118.858 22.9718 118.682 22.9824 118.522 22.9824ZM124.476 23.0784C123.548 23.0784 122.737 22.8598 122.044 22.4224C121.361 21.9744 120.892 21.3718 120.636 20.6144L122.204 19.8624C122.428 20.3531 122.737 20.7371 123.132 21.0144C123.537 21.2918 123.985 21.4304 124.476 21.4304C124.86 21.4304 125.164 21.3451 125.388 21.1744C125.612 21.0038 125.724 20.7798 125.724 20.5024C125.724 20.3318 125.676 20.1931 125.58 20.0864C125.494 19.9691 125.372 19.8731 125.212 19.7984C125.062 19.7131 124.897 19.6438 124.716 19.5904L123.292 19.1904C122.556 18.9771 121.996 18.6518 121.612 18.2144C121.238 17.7771 121.052 17.2598 121.052 16.6624C121.052 16.1291 121.185 15.6651 121.452 15.2704C121.729 14.8651 122.108 14.5504 122.588 14.3264C123.078 14.1024 123.638 13.9904 124.268 13.9904C125.089 13.9904 125.814 14.1878 126.444 14.5824C127.073 14.9771 127.521 15.5318 127.788 16.2464L126.188 16.9984C126.038 16.6038 125.788 16.2891 125.436 16.0544C125.084 15.8198 124.689 15.7024 124.252 15.7024C123.9 15.7024 123.622 15.7824 123.42 15.9424C123.217 16.1024 123.116 16.3104 123.116 16.5664C123.116 16.7264 123.158 16.8651 123.244 16.9824C123.329 17.0998 123.446 17.1958 123.596 17.2704C123.756 17.3451 123.937 17.4144 124.14 17.4784L125.532 17.8944C126.246 18.1078 126.796 18.4278 127.18 18.8544C127.574 19.2811 127.772 19.8038 127.772 20.4224C127.772 20.9451 127.633 21.4091 127.356 21.8144C127.078 22.2091 126.694 22.5184 126.204 22.7424C125.713 22.9664 125.137 23.0784 124.476 23.0784Z" fill="black"/>
</svg>
