<svg width="118" height="43" viewBox="0 0 118 43" fill="none" xmlns="http://www.w3.org/2000/svg">
<path d="M16.5122 25.053C21.2455 25.053 25.053 21.2455 25.053 16.5122C25.053 11.7789 21.2455 7.97141 16.5122 7.97141C11.7789 7.97141 7.97144 11.7789 7.97144 16.5122C7.97144 21.2455 11.7789 25.053 16.5122 25.053Z" fill="#2775CA"/>
<path d="M18.861 17.8642C18.861 16.6189 18.1137 16.1919 16.619 16.0134C15.5514 15.8707 15.3379 15.5863 15.3379 15.0884C15.3379 14.5905 15.694 14.2702 16.4055 14.2702C17.0461 14.2702 17.4022 14.4837 17.5799 15.0175C17.6157 15.1243 17.7225 15.1952 17.8292 15.1952H18.3989C18.5415 15.1952 18.6483 15.0884 18.6483 14.9458V14.9099C18.5057 14.1267 17.8651 13.522 17.0469 13.4511V12.5971C17.0469 12.4544 16.9402 12.3477 16.7625 12.3127H16.2287C16.0861 12.3127 15.9793 12.4194 15.9443 12.5971V13.4153C14.8767 13.5579 14.2003 14.2693 14.2003 15.1593C14.2003 16.3337 14.9117 16.7966 16.4064 16.9742C17.4031 17.1519 17.7233 17.3654 17.7233 17.9351C17.7233 18.5047 17.2254 18.8959 16.549 18.8959C15.624 18.8959 15.3037 18.5047 15.197 17.9709C15.1611 17.8283 15.0543 17.7574 14.9476 17.7574H14.3429C14.2003 17.7574 14.0935 17.8642 14.0935 18.0068V18.0427C14.2361 18.9326 14.805 19.5732 15.9793 19.7508V20.6049C15.9793 20.7475 16.0861 20.8543 16.2637 20.8893H16.7975C16.9402 20.8893 17.0469 20.7826 17.0819 20.6049V19.7508C18.1487 19.5723 18.861 18.825 18.861 17.8642Z" fill="white"/>
<path d="M14.6969 21.6008C11.9211 20.6041 10.4974 17.5081 11.53 14.7682C12.0638 13.2735 13.2381 12.1351 14.6969 11.6013C14.8395 11.5304 14.9104 11.4236 14.9104 11.2451V10.7472C14.9104 10.6045 14.8395 10.4978 14.6969 10.4628C14.661 10.4628 14.5901 10.4628 14.5543 10.4986C11.1738 11.5662 9.32304 15.1602 10.3906 18.5415C11.0312 20.5341 12.5617 22.0646 14.5543 22.7051C14.6969 22.776 14.8387 22.7051 14.8746 22.5625C14.9104 22.5266 14.9104 22.4916 14.9104 22.4199V21.9219C14.9104 21.8143 14.8037 21.6726 14.6969 21.6008ZM18.4685 10.4978C18.3259 10.4269 18.1841 10.4978 18.1482 10.6404C18.1124 10.6763 18.1124 10.7113 18.1124 10.7831V11.281C18.1124 11.4236 18.2191 11.5654 18.3259 11.6371C21.1016 12.6338 22.5254 15.7299 21.4928 18.4698C20.959 19.9644 19.7847 21.1029 18.3259 21.6367C18.1833 21.7076 18.1124 21.8143 18.1124 21.9928V22.4908C18.1124 22.6334 18.1833 22.7402 18.3259 22.7752C18.3618 22.7752 18.4326 22.7752 18.4685 22.7393C21.849 21.6717 23.6998 18.0777 22.6322 14.6964C21.9916 12.6689 20.4261 11.1383 18.4685 10.4978Z" fill="white"/>
<path fill-rule="evenodd" clip-rule="evenodd" d="M24.0186 33.4661C21.592 36.1085 19.1627 38.7537 17.4059 41.7965C17.0087 42.4845 16.0157 42.4845 15.6184 41.7965C13.8617 38.7537 11.4324 36.1085 9.00575 33.4661C6.12506 30.3294 3.24808 27.1967 1.50435 23.4078C0.53859 21.3093 0 18.9737 0 16.5122C0 7.39276 7.39276 0 16.5122 0C25.6316 0 33.0244 7.39276 33.0244 16.5122C33.0244 18.9737 32.4858 21.3093 31.52 23.4078C29.7763 27.1967 26.8993 30.3294 24.0186 33.4661ZM16.5122 28.0122C22.8635 28.0122 28.0122 22.8635 28.0122 16.5122C28.0122 10.1609 22.8635 5.0122 16.5122 5.0122C10.1609 5.0122 5.01222 10.1609 5.01222 16.5122C5.01222 22.8635 10.1609 28.0122 16.5122 28.0122Z" fill="#2775CA"/>
<path d="M46.7684 18.3483C45.8511 18.3483 45.0351 18.1562 44.3204 17.7722C43.6164 17.3882 43.0617 16.8602 42.6564 16.1882C42.2511 15.5162 42.0484 14.7536 42.0484 13.9002V6.23625H44.2244V13.7882C44.2244 14.2789 44.3311 14.7216 44.5444 15.1162C44.7684 15.5109 45.0724 15.8202 45.4564 16.0443C45.8404 16.2576 46.2777 16.3642 46.7684 16.3642C47.2697 16.3642 47.7071 16.2576 48.0804 16.0443C48.4644 15.8202 48.7631 15.5109 48.9764 15.1162C49.2004 14.7216 49.3124 14.2789 49.3124 13.7882V6.23625H51.4884V13.9002C51.4884 14.7536 51.2857 15.5162 50.8804 16.1882C50.4751 16.8602 49.9151 17.3882 49.2004 17.7722C48.4964 18.1562 47.6857 18.3483 46.7684 18.3483ZM57.9168 18.3483C57.1595 18.3483 56.4555 18.2096 55.8048 17.9322C55.1648 17.6549 54.6101 17.2709 54.1408 16.7802C53.6821 16.2789 53.3461 15.6976 53.1328 15.0362L54.9408 14.2522C55.2288 14.9349 55.6448 15.4736 56.1888 15.8682C56.7328 16.2522 57.3461 16.4442 58.0288 16.4442C58.4128 16.4442 58.7435 16.3856 59.0208 16.2682C59.3088 16.1402 59.5275 15.9696 59.6768 15.7562C59.8368 15.5429 59.9168 15.2869 59.9168 14.9882C59.9168 14.6362 59.8101 14.3482 59.5968 14.1242C59.3941 13.8896 59.0848 13.7082 58.6688 13.5802L56.3808 12.8442C55.4528 12.5562 54.7541 12.1242 54.2848 11.5482C53.8155 10.9722 53.5808 10.2949 53.5808 9.51625C53.5808 8.83358 53.7461 8.23092 54.0768 7.70825C54.4181 7.18558 54.8875 6.78025 55.4848 6.49225C56.0928 6.19358 56.7861 6.04425 57.5648 6.04425C58.2795 6.04425 58.9355 6.17225 59.5328 6.42825C60.1301 6.67358 60.6421 7.02025 61.0688 7.46825C61.5061 7.90558 61.8315 8.42292 62.0448 9.02025L60.2528 9.82025C60.0181 9.22292 59.6661 8.76425 59.1968 8.44425C58.7275 8.11358 58.1835 7.94825 57.5648 7.94825C57.2021 7.94825 56.8821 8.01225 56.6048 8.14025C56.3275 8.25758 56.1088 8.42825 55.9488 8.65225C55.7995 8.86558 55.7248 9.12158 55.7248 9.42025C55.7248 9.75092 55.8315 10.0442 56.0448 10.3002C56.2581 10.5456 56.5835 10.7376 57.0208 10.8762L59.2128 11.5642C60.1621 11.8736 60.8715 12.3002 61.3408 12.8442C61.8208 13.3882 62.0608 14.0602 62.0608 14.8602C62.0608 15.5429 61.8848 16.1456 61.5328 16.6682C61.1808 17.1909 60.6955 17.6016 60.0768 17.9002C59.4581 18.1989 58.7381 18.3483 57.9168 18.3483ZM64.0202 18.1562V6.23625H67.9082C69.1668 6.23625 70.2602 6.49225 71.1882 7.00425C72.1268 7.50558 72.8522 8.20425 73.3642 9.10025C73.8762 9.98558 74.1322 11.0149 74.1322 12.1882C74.1322 13.3509 73.8762 14.3856 73.3642 15.2922C72.8522 16.1882 72.1268 16.8922 71.1882 17.4042C70.2602 17.9056 69.1668 18.1562 67.9082 18.1562H64.0202ZM66.1962 16.2362H67.9562C68.7668 16.2362 69.4655 16.0709 70.0522 15.7402C70.6495 15.3989 71.1135 14.9296 71.4442 14.3322C71.7748 13.7242 71.9402 13.0096 71.9402 12.1882C71.9402 11.3562 71.7748 10.6416 71.4442 10.0442C71.1135 9.44692 70.6495 8.98292 70.0522 8.65225C69.4655 8.32158 68.7668 8.15625 67.9562 8.15625H66.1962V16.2362ZM81.4639 18.3483C80.6106 18.3483 79.8212 18.1936 79.0959 17.8842C78.3812 17.5749 77.7519 17.1429 77.2079 16.5882C76.6746 16.0336 76.2586 15.3829 75.9599 14.6362C75.6612 13.8896 75.5119 13.0736 75.5119 12.1882C75.5119 11.3029 75.6559 10.4869 75.9439 9.74025C76.2426 8.98292 76.6586 8.33225 77.1919 7.78825C77.7359 7.23358 78.3706 6.80692 79.0959 6.50825C79.8212 6.19892 80.6106 6.04425 81.4639 6.04425C82.3172 6.04425 83.0799 6.18825 83.7519 6.47625C84.4346 6.76425 85.0106 7.14825 85.4799 7.62825C85.9492 8.09758 86.2852 8.61492 86.4879 9.18025L84.5359 10.0922C84.3119 9.49492 83.9332 9.00425 83.3999 8.62025C82.8666 8.22558 82.2212 8.02825 81.4639 8.02825C80.7172 8.02825 80.0559 8.20425 79.4799 8.55625C78.9146 8.90825 78.4719 9.39358 78.1519 10.0122C77.8426 10.6309 77.6879 11.3562 77.6879 12.1882C77.6879 13.0202 77.8426 13.7509 78.1519 14.3802C78.4719 14.9989 78.9146 15.4842 79.4799 15.8362C80.0559 16.1882 80.7172 16.3642 81.4639 16.3642C82.2212 16.3642 82.8666 16.1722 83.3999 15.7882C83.9332 15.3936 84.3119 14.8976 84.5359 14.3002L86.4879 15.2122C86.2852 15.7776 85.9492 16.3002 85.4799 16.7802C85.0106 17.2496 84.4346 17.6282 83.7519 17.9162C83.0799 18.2042 82.3172 18.3483 81.4639 18.3483ZM42.1764 37.1562V25.2362H43.8724L50.4324 34.0682L49.5524 34.2442V25.2362H51.7284V37.1562H50.0164L43.5524 28.2602L44.3524 28.0842V37.1562H42.1764ZM57.9878 37.3483C57.0918 37.3483 56.3078 37.1456 55.6358 36.7402C54.9638 36.3349 54.4411 35.7856 54.0678 35.0922C53.6945 34.3989 53.5078 33.6309 53.5078 32.7882C53.5078 31.9136 53.6945 31.1402 54.0678 30.4682C54.4518 29.7856 54.9691 29.2469 55.6198 28.8522C56.2811 28.4576 57.0171 28.2602 57.8278 28.2602C58.5105 28.2602 59.1078 28.3722 59.6198 28.5962C60.1425 28.8202 60.5851 29.1296 60.9478 29.5242C61.3105 29.9189 61.5878 30.3722 61.7798 30.8842C61.9718 31.3856 62.0678 31.9296 62.0678 32.5162C62.0678 32.6656 62.0571 32.8202 62.0358 32.9802C62.0251 33.1402 61.9985 33.2789 61.9558 33.3962H55.2358V31.7962H60.7718L59.7798 32.5482C59.8758 32.0576 59.8491 31.6202 59.6998 31.2362C59.5611 30.8522 59.3265 30.5482 58.9958 30.3242C58.6758 30.1002 58.2865 29.9882 57.8278 29.9882C57.3905 29.9882 57.0011 30.1002 56.6598 30.3242C56.3185 30.5376 56.0571 30.8576 55.8758 31.2842C55.7051 31.7002 55.6411 32.2069 55.6838 32.8042C55.6411 33.3376 55.7105 33.8122 55.8918 34.2282C56.0838 34.6336 56.3611 34.9482 56.7238 35.1722C57.0971 35.3962 57.5238 35.5082 58.0038 35.5082C58.4838 35.5082 58.8891 35.4069 59.2198 35.2042C59.5611 35.0016 59.8278 34.7296 60.0198 34.3882L61.7158 35.2202C61.5451 35.6362 61.2785 36.0042 60.9158 36.3242C60.5531 36.6442 60.1211 36.8949 59.6198 37.0762C59.1291 37.2576 58.5851 37.3483 57.9878 37.3483ZM66.2654 37.3483C65.6574 37.3483 65.1294 37.2469 64.6814 37.0442C64.2334 36.8416 63.8867 36.5536 63.6414 36.1802C63.3961 35.7962 63.2734 35.3536 63.2734 34.8522C63.2734 34.3722 63.3801 33.9456 63.5934 33.5722C63.8067 33.1882 64.1374 32.8682 64.5854 32.6122C65.0334 32.3562 65.5987 32.1749 66.2814 32.0682L69.1294 31.6042V33.2042L66.6814 33.6202C66.2654 33.6949 65.9561 33.8282 65.7534 34.0202C65.5507 34.2122 65.4494 34.4629 65.4494 34.7722C65.4494 35.0709 65.5614 35.3109 65.7854 35.4922C66.0201 35.6629 66.3081 35.7482 66.6494 35.7482C67.0867 35.7482 67.4707 35.6576 67.8014 35.4762C68.1427 35.2842 68.4041 35.0229 68.5854 34.6922C68.7774 34.3616 68.8734 33.9989 68.8734 33.6042V31.3642C68.8734 30.9909 68.7241 30.6816 68.4254 30.4362C68.1374 30.1802 67.7534 30.0522 67.2734 30.0522C66.8254 30.0522 66.4254 30.1749 66.0734 30.4202C65.7321 30.6549 65.4814 30.9696 65.3214 31.3642L63.6094 30.5322C63.7801 30.0736 64.0467 29.6789 64.4094 29.3482C64.7827 29.0069 65.2201 28.7402 65.7214 28.5482C66.2227 28.3562 66.7667 28.2602 67.3534 28.2602C68.0681 28.2602 68.6974 28.3936 69.2414 28.6602C69.7854 28.9162 70.2067 29.2789 70.5054 29.7482C70.8147 30.2069 70.9694 30.7456 70.9694 31.3642V37.1562H68.9854V35.6682L69.4334 35.6362C69.2094 36.0096 68.9427 36.3242 68.6334 36.5802C68.3241 36.8256 67.9721 37.0176 67.5774 37.1562C67.1827 37.2843 66.7454 37.3483 66.2654 37.3483ZM72.9067 37.1562V28.4522H74.8747V30.3882L74.7147 30.1002C74.9173 29.4496 75.232 28.9962 75.6587 28.7402C76.096 28.4842 76.6187 28.3562 77.2267 28.3562H77.7387V30.2122H76.9867C76.3893 30.2122 75.9093 30.3989 75.5467 30.7722C75.184 31.1349 75.0027 31.6469 75.0027 32.3082V37.1562H72.9067ZM81.9108 37.1562V25.2362H83.9908L88.4548 31.3002H87.4628L91.8308 25.2362H93.9108V37.1562H91.7188V27.7162L92.5668 27.9242L88.0388 33.9562H87.7828L83.3668 27.9242L84.0868 27.7162V37.1562H81.9108ZM100.144 37.3483C99.248 37.3483 98.464 37.1456 97.792 36.7402C97.12 36.3349 96.5974 35.7856 96.224 35.0922C95.8507 34.3989 95.664 33.6309 95.664 32.7882C95.664 31.9136 95.8507 31.1402 96.224 30.4682C96.608 29.7856 97.1254 29.2469 97.776 28.8522C98.4374 28.4576 99.1734 28.2602 99.984 28.2602C100.667 28.2602 101.264 28.3722 101.776 28.5962C102.299 28.8202 102.741 29.1296 103.104 29.5242C103.467 29.9189 103.744 30.3722 103.936 30.8842C104.128 31.3856 104.224 31.9296 104.224 32.5162C104.224 32.6656 104.213 32.8202 104.192 32.9802C104.181 33.1402 104.155 33.2789 104.112 33.3962H97.392V31.7962H102.928L101.936 32.5482C102.032 32.0576 102.005 31.6202 101.856 31.2362C101.717 30.8522 101.483 30.5482 101.152 30.3242C100.832 30.1002 100.443 29.9882 99.984 29.9882C99.5467 29.9882 99.1574 30.1002 98.816 30.3242C98.4747 30.5376 98.2134 30.8576 98.032 31.2842C97.8614 31.7002 97.7974 32.2069 97.84 32.8042C97.7974 33.3376 97.8667 33.8122 98.048 34.2282C98.24 34.6336 98.5174 34.9482 98.88 35.1722C99.2534 35.3962 99.68 35.5082 100.16 35.5082C100.64 35.5082 101.045 35.4069 101.376 35.2042C101.717 35.0016 101.984 34.7296 102.176 34.3882L103.872 35.2202C103.701 35.6362 103.435 36.0042 103.072 36.3242C102.709 36.6442 102.277 36.8949 101.776 37.0762C101.285 37.2576 100.741 37.3483 100.144 37.3483Z" fill="black"/>
</svg>
