<svg width="18" height="18" viewBox="0 0 18 18" fill="none" xmlns="http://www.w3.org/2000/svg">
<g clip-path="url(#clip0_62_170)">
<path d="M9 18C13.9875 18 18 13.9875 18 9C18 4.01247 13.9875 0 9 0C4.01247 0 0 4.01247 0 9C0 13.9875 4.01247 18 9 18Z" fill="#2775CA"/>
<path d="M11.475 10.425C11.475 9.11251 10.6875 8.66251 9.11254 8.47504C7.98754 8.32501 7.76254 8.02504 7.76254 7.49998C7.76254 6.97492 8.13757 6.63751 8.88754 6.63751C9.56254 6.63751 9.93757 6.86251 10.125 7.42501C10.1626 7.53751 10.2751 7.61248 10.3876 7.61248H10.9875C11.1375 7.61248 11.25 7.49998 11.25 7.35004V7.31251C11.1 6.48748 10.425 5.85001 9.56254 5.77504V4.87504C9.56254 4.72501 9.45004 4.61251 9.26257 4.57498H8.70007C8.55004 4.57498 8.43754 4.68748 8.40001 4.87504V5.73751C7.27501 5.88754 6.56257 6.63751 6.56257 7.57504C6.56257 8.81254 7.31254 9.29998 8.88754 9.48754C9.93757 9.67501 10.2751 9.90001 10.2751 10.5C10.2751 11.1001 9.75001 11.5125 9.03757 11.5125C8.06251 11.5125 7.72501 11.1 7.61251 10.5375C7.57507 10.3875 7.46257 10.3125 7.35007 10.3125H6.71251C6.56257 10.3125 6.45007 10.425 6.45007 10.575V10.6125C6.60001 11.55 7.20004 12.225 8.43754 12.4125V13.3125C8.43754 13.4625 8.55004 13.575 8.73751 13.6125H9.30001C9.45004 13.6125 9.56254 13.5 9.60007 13.3125V12.4125C10.7251 12.225 11.475 11.4375 11.475 10.425Z" fill="white"/>
<path d="M7.08762 14.3625C4.16262 13.3125 2.66259 10.05 3.75015 7.16247C4.31265 5.58747 5.55015 4.3875 7.08762 3.825C7.23765 3.75003 7.31262 3.63753 7.31262 3.44997V2.925C7.31262 2.77497 7.23765 2.66247 7.08762 2.62503C7.05009 2.62503 6.97512 2.62503 6.93759 2.66247C3.37512 3.78747 1.42509 7.57503 2.55009 11.1375C3.22509 13.2375 4.83762 14.85 6.93759 15.525C7.08762 15.6 7.23765 15.525 7.27509 15.375C7.31262 15.3375 7.31262 15.3 7.31262 15.225V14.7C7.31262 14.5875 7.20012 14.4375 7.08762 14.3625ZM11.0627 2.66247C10.9126 2.5875 10.7626 2.66247 10.7252 2.8125C10.6876 2.85003 10.6876 2.88747 10.6876 2.96253V3.4875C10.6876 3.63753 10.8001 3.78747 10.9126 3.86253C13.8376 4.91247 15.3377 8.17497 14.2501 11.0625C13.6876 12.6375 12.4501 13.8375 10.9126 14.4C10.7626 14.475 10.6876 14.5875 10.6876 14.775V15.3C10.6876 15.45 10.7626 15.5625 10.9126 15.6C10.9502 15.6 11.0251 15.6 11.0627 15.5625C14.6251 14.4375 16.5752 10.65 15.4502 7.0875C14.7752 4.95 13.1251 3.33747 11.0627 2.66247Z" fill="white"/>
</g>
<defs>
<clipPath id="clip0_62_170">
<rect width="18" height="18" fill="white"/>
</clipPath>
</defs>
</svg>
