<svg width="24" height="24" viewBox="0 0 24 24" fill="none" xmlns="http://www.w3.org/2000/svg">
<mask id="mask0_26_86" style="mask-type:luminance" maskUnits="userSpaceOnUse" x="0" y="0" width="24" height="24">
<path d="M23.9926 0H0V23.9926H23.9926V0Z" fill="white"/>
</mask>
<g mask="url(#mask0_26_86)">
<path d="M18.0523 23.9927H5.94021C2.66478 23.9927 0 21.3281 0 18.0525V5.94048C0 2.66498 2.66478 0.000183105 5.94021 0.000183105H18.0523C21.3278 0.000183105 23.9926 2.66498 23.9926 5.94048V18.0525C23.9926 21.3281 21.3278 23.9927 18.0523 23.9927Z" fill="#472A91"/>
<path d="M15.7431 7.59302L14.5601 12.036L13.3732 7.59302H10.6419L9.4436 12.0687L8.24928 7.59302H5.13837L8.02911 17.4164H10.713L11.9963 12.8548L13.2796 17.4164H15.9693L18.8537 7.59302H15.7431Z" fill="white"/>
</g>
</svg>
